<svg width="972" height="972" xmlns="http://www.w3.org/2000/svg" xmlns:xlink="http://www.w3.org/1999/xlink" xml:space="preserve" overflow="hidden"><defs><clipPath id="clip0"><rect x="916" y="201" width="972" height="972"/></clipPath></defs><g clip-path="url(#clip0)" transform="translate(-916 -201)"><path d="M928 688C928 426.217 1140.22 214 1402 214 1663.78 214 1876 426.217 1876 688 1876 949.783 1663.78 1162 1402 1162 1140.22 1162 928 949.783 928 688Z" stroke="#00F61F" stroke-width="18.3333" stroke-linecap="butt" stroke-linejoin="miter" stroke-miterlimit="8" stroke-opacity="1" fill="#333133" fill-rule="evenodd" fill-opacity="1"/><text fill="#00F61F" fill-opacity="1" font-family="American Typewriter,American Typewriter_MSFontService,sans-serif" font-style="normal" font-variant="normal" font-weight="400" font-stretch="normal" font-size="165" text-anchor="start" direction="ltr" writing-mode="lr-tb" unicode-bidi="normal" text-decoration="none" transform="matrix(1 0 0 1 1100.15 641)">Life is a </text><text fill="#00F61F" fill-opacity="1" font-family="American Typewriter,American Typewriter_MSFontService,sans-serif" font-style="normal" font-variant="normal" font-weight="400" font-stretch="normal" font-size="165" text-anchor="start" direction="ltr" writing-mode="lr-tb" unicode-bidi="normal" text-decoration="none" transform="matrix(1 0 0 1 1176.95 839)">Game</text><path d="M1015.5 679.5C1015.5 468.527 1186.53 297.5 1397.5 297.5 1608.47 297.5 1779.5 468.527 1779.5 679.5 1779.5 890.473 1608.47 1061.5 1397.5 1061.5 1186.53 1061.5 1015.5 890.473 1015.5 679.5Z" stroke="#00F61F" stroke-width="4.58333" stroke-linecap="butt" stroke-linejoin="miter" stroke-miterlimit="8" stroke-opacity="1" fill="#4472C4" fill-rule="evenodd" fill-opacity="0"/></g></svg>